<?xml version="1.0" encoding="UTF-8" standalone="no" ?>
<!DOCTYPE svg PUBLIC "-//W3C//DTD SVG 1.1//EN" "http://www.w3.org/Graphics/SVG/1.1/DTD/svg11.dtd">
<svg xmlns="http://www.w3.org/2000/svg" fill="#78c163" xmlns:xlink="http://www.w3.org/1999/xlink" version="1.1" width="350" height="350" viewBox="0 0 350 350" xml:space="preserve">
<desc>Created with Fabric.js 1.7.22</desc>
<defs>
</defs>
<g id="icon" style="stroke: none; stroke-width: 1; stroke-dasharray: none; stroke-linecap: butt; stroke-linejoin: miter; stroke-miterlimit: 10; fill: none; fill-rule: nonzero; opacity: 1;" transform="translate(-1.9444444444444287 -1.9444444444444287) scale(3.89 3.89)" >
	<path d="M 56.136 47.883 H 22.919 c -0.829 0 -1.5 -0.672 -1.5 -1.5 V 44.9 c 0 -9.985 8.124 -18.108 18.108 -18.108 S 57.636 34.915 57.636 44.9 v 1.483 C 57.636 47.211 56.964 47.883 56.136 47.883 z M 24.419 44.883 h 30.216 c -0.009 -8.323 -6.783 -15.091 -15.108 -15.091 C 31.203 29.792 24.429 36.56 24.419 44.883 z" style="stroke: none; stroke-width: 1; stroke-dasharray: none; stroke-linecap: butt; stroke-linejoin: miter; stroke-miterlimit: 10; fill: rgba(120,193,99,255); fill-rule: nonzero; opacity: 1;" transform=" matrix(1 0 0 1 0 0) " stroke-linecap="round" />
	<path d="M 56.11 55.298 H 22.945 c -2.871 0 -5.207 -2.336 -5.207 -5.208 c 0 -2.871 2.336 -5.207 5.207 -5.207 H 56.11 c 2.871 0 5.207 2.336 5.207 5.207 C 61.317 52.962 58.981 55.298 56.11 55.298 z M 22.945 47.883 c -1.217 0 -2.207 0.99 -2.207 2.207 c 0 1.218 0.99 2.208 2.207 2.208 H 56.11 c 1.217 0 2.207 -0.99 2.207 -2.208 c 0 -1.217 -0.99 -2.207 -2.207 -2.207 H 22.945 z" style="stroke: none; stroke-width: 1; stroke-dasharray: none; stroke-linecap: butt; stroke-linejoin: miter; stroke-miterlimit: 10; fill: rgba(120,193,99,255); fill-rule: nonzero; opacity: 1;" transform=" matrix(1 0 0 1 0 0) " stroke-linecap="round" />
	<path d="M 34.911 30.334 c -0.829 0 -1.5 -0.671 -1.5 -1.5 v -8.259 c 0 -7.424 6.041 -13.465 13.465 -13.465 h 11.801 C 60.671 2.817 65.016 0 69.8 0 h 0.962 c 0.828 0 1.5 0.671 1.5 1.5 v 21.546 c 0 0.829 -0.672 1.5 -1.5 1.5 H 69.8 c -4.769 0 -9.107 -2.805 -11.108 -7.081 h -9.91 c -2.895 0 -5.25 2.355 -5.25 5.25 v 5.764 c 0 0.829 -0.671 1.5 -1.5 1.5 s -1.5 -0.671 -1.5 -1.5 v -5.764 c 0 -4.549 3.701 -8.25 8.25 -8.25 H 59.69 c 0.63 0 1.192 0.394 1.409 0.985 c 1.271 3.477 4.508 5.865 8.162 6.08 V 3.016 c -3.666 0.215 -6.908 2.614 -8.172 6.105 c -0.215 0.594 -0.778 0.989 -1.41 0.989 H 46.876 c -5.771 0 -10.465 4.694 -10.465 10.465 v 8.259 C 36.411 29.663 35.739 30.334 34.911 30.334 z" style="stroke: none; stroke-width: 1; stroke-dasharray: none; stroke-linecap: butt; stroke-linejoin: miter; stroke-miterlimit: 10; fill: rgba(120,193,99,255); fill-rule: nonzero; opacity: 1;" transform=" matrix(1 0 0 1 0 0) " stroke-linecap="round" />
	<path d="M 39.528 84.624 c -0.829 0 -1.5 -0.672 -1.5 -1.5 V 60.501 c 0 -0.828 0.671 -1.5 1.5 -1.5 s 1.5 0.672 1.5 1.5 v 22.623 C 41.028 83.952 40.356 84.624 39.528 84.624 z" style="stroke: none; stroke-width: 1; stroke-dasharray: none; stroke-linecap: butt; stroke-linejoin: miter; stroke-miterlimit: 10; fill: rgba(120,193,99,255); fill-rule: nonzero; opacity: 1;" transform=" matrix(1 0 0 1 0 0) " stroke-linecap="round" />
	<path d="M 46.309 86.864 c -0.829 0 -1.5 -0.672 -1.5 -1.5 V 72.933 c 0 -0.828 0.671 -1.5 1.5 -1.5 c 0.828 0 1.5 0.672 1.5 1.5 v 12.432 C 47.809 86.192 47.137 86.864 46.309 86.864 z" style="stroke: none; stroke-width: 1; stroke-dasharray: none; stroke-linecap: butt; stroke-linejoin: miter; stroke-miterlimit: 10; fill: rgba(120,193,99,255); fill-rule: nonzero; opacity: 1;" transform=" matrix(1 0 0 1 0 0) " stroke-linecap="round" />
	<path d="M 46.309 69.271 c -0.829 0 -1.5 -0.672 -1.5 -1.5 v -7.27 c 0 -0.828 0.671 -1.5 1.5 -1.5 c 0.828 0 1.5 0.672 1.5 1.5 v 7.27 C 47.809 68.599 47.137 69.271 46.309 69.271 z" style="stroke: none; stroke-width: 1; stroke-dasharray: none; stroke-linecap: butt; stroke-linejoin: miter; stroke-miterlimit: 10; fill: rgba(120,193,99,255); fill-rule: nonzero; opacity: 1;" transform=" matrix(1 0 0 1 0 0) " stroke-linecap="round" />
	<path d="M 32.747 90 c -0.829 0 -1.5 -0.672 -1.5 -1.5 v -9.352 c 0 -0.828 0.671 -1.5 1.5 -1.5 s 1.5 0.672 1.5 1.5 V 88.5 C 34.247 89.328 33.575 90 32.747 90 z" style="stroke: none; stroke-width: 1; stroke-dasharray: none; stroke-linecap: butt; stroke-linejoin: miter; stroke-miterlimit: 10; fill: rgba(120,193,99,255); fill-rule: nonzero; opacity: 1;" transform=" matrix(1 0 0 1 0 0) " stroke-linecap="round" />
	<path d="M 32.747 75.413 c -0.829 0 -1.5 -0.672 -1.5 -1.5 V 60.501 c 0 -0.828 0.671 -1.5 1.5 -1.5 s 1.5 0.672 1.5 1.5 v 13.412 C 34.247 74.741 33.575 75.413 32.747 75.413 z" style="stroke: none; stroke-width: 1; stroke-dasharray: none; stroke-linecap: butt; stroke-linejoin: miter; stroke-miterlimit: 10; fill: rgba(120,193,99,255); fill-rule: nonzero; opacity: 1;" transform=" matrix(1 0 0 1 0 0) " stroke-linecap="round" />
	<path d="M 25.965 84.624 c -0.829 0 -1.5 -0.672 -1.5 -1.5 V 60.501 c 0 -0.828 0.671 -1.5 1.5 -1.5 s 1.5 0.672 1.5 1.5 v 22.623 C 27.465 83.952 26.793 84.624 25.965 84.624 z" style="stroke: none; stroke-width: 1; stroke-dasharray: none; stroke-linecap: butt; stroke-linejoin: miter; stroke-miterlimit: 10; fill: rgba(120,193,99,255); fill-rule: nonzero; opacity: 1;" transform=" matrix(1 0 0 1 0 0) " stroke-linecap="round" />
	<path d="M 53.091 84.624 c -0.828 0 -1.5 -0.672 -1.5 -1.5 V 60.501 c 0 -0.828 0.672 -1.5 1.5 -1.5 s 1.5 0.672 1.5 1.5 v 22.623 C 54.591 83.952 53.919 84.624 53.091 84.624 z" style="stroke: none; stroke-width: 1; stroke-dasharray: none; stroke-linecap: butt; stroke-linejoin: miter; stroke-miterlimit: 10; fill: rgba(120,193,99,255); fill-rule: nonzero; opacity: 1;" transform=" matrix(1 0 0 1 0 0) " stroke-linecap="round" />
</g>
</svg>